<svg xmlns="http://www.w3.org/2000/svg" xmlns:xlink="http://www.w3.org/1999/xlink" preserveAspectRatio="xMidYMid" width="51" height="42" viewBox="0 0 51 42">
  <defs>
    <style>
      .cls-1 {
        fill: #fff;
        fill-rule: evenodd;
      }
    </style>
  </defs>
  <path d="M50.195,8.945 L48.101,7.320 L45.900,5.585 L46.651,4.556 L51.000,7.916 L50.195,8.945 ZM31.835,32.949 L26.037,35.983 L27.486,29.590 L45.363,6.236 L49.712,9.595 L31.835,32.949 ZM45.095,8.674 L28.721,30.077 L29.741,30.836 L46.115,9.433 L45.095,8.674 ZM26.681,29.481 L25.232,35.875 C25.124,36.200 25.285,36.525 25.500,36.688 C25.661,36.796 25.822,36.850 25.983,36.850 C26.144,36.850 26.252,36.796 26.359,36.742 L32.103,33.707 C32.211,33.654 32.318,33.599 32.371,33.491 L39.726,23.954 C41.927,25.797 43.108,28.723 43.108,32.624 L43.108,41.998 L-0.000,41.998 L-0.000,32.624 C-0.000,25.580 3.973,21.625 10.844,21.625 L32.425,21.625 C32.479,21.625 32.533,21.625 32.586,21.625 L26.842,29.156 C26.735,29.265 26.681,29.372 26.681,29.481 ZM21.635,19.403 C16.320,19.403 12.025,15.068 12.025,9.704 C12.025,4.339 16.320,0.005 21.635,0.005 C26.949,0.005 31.244,4.339 31.244,9.704 C31.244,15.068 26.949,19.403 21.635,19.403 Z" class="cls-1"/>
</svg>
