<svg xmlns="http://www.w3.org/2000/svg" xmlns:xlink="http://www.w3.org/1999/xlink" preserveAspectRatio="xMidYMid" width="50" height="46" viewBox="0 0 50 46">
  <defs>
    <style>
      .cls-1 {
        fill: #fff;
        fill-rule: evenodd;
      }
      .cls-1:hover {
      fill: red !important;
      }
    </style>
  </defs>
  <path d="M41.000,-0.001 C36.375,-0.001 32.559,3.506 32.059,7.998 L17.941,7.998 C17.441,3.506 13.624,-0.001 9.000,-0.001 C4.038,-0.001 -0.000,4.037 -0.000,8.999 C-0.000,13.961 4.038,17.999 9.000,17.999 C10.268,17.999 11.473,17.732 12.568,17.259 L19.701,29.740 C17.462,31.379 16.000,34.019 16.000,36.999 C16.000,41.962 20.038,45.999 25.000,45.999 C29.963,45.999 34.000,41.962 34.000,36.999 C34.000,34.019 32.538,31.380 30.300,29.741 L37.433,17.259 C38.527,17.733 39.732,17.999 41.000,17.999 C45.963,17.999 50.000,13.961 50.000,8.999 C50.000,4.037 45.963,-0.001 41.000,-0.001 ZM28.568,28.740 C27.474,28.266 26.268,27.999 25.000,27.999 C23.732,27.999 22.527,28.266 21.433,28.740 L14.300,16.257 C16.284,14.804 17.656,12.566 17.942,9.999 L32.060,9.999 C32.346,12.566 33.718,14.805 35.703,16.258 L28.568,28.740 Z" class="cls-1"/>
</svg>
