<svg xmlns="http://www.w3.org/2000/svg" xmlns:xlink="http://www.w3.org/1999/xlink" preserveAspectRatio="xMidYMid" width="50" height="50" viewBox="0 0 50 50">
  <defs>
    <style>
      .cls-1 {
        fill: #fff;
        fill-rule: evenodd;
      }
    </style>
  </defs>
  <path d="M47.032,36.821 L40.825,37.594 L38.373,31.788 C39.411,29.747 40.000,27.440 40.000,24.993 C40.000,16.964 33.696,10.407 25.769,10.008 L29.564,4.987 L25.794,-0.001 C39.234,0.419 50.000,11.448 50.000,24.993 C50.000,29.271 48.925,33.299 47.032,36.821 ZM24.200,10.010 C16.288,10.426 10.000,16.975 10.000,24.993 C10.000,27.453 10.596,29.772 11.645,31.822 L5.394,31.043 L2.960,36.805 C1.072,33.287 -0.001,29.265 -0.001,24.993 C-0.001,11.441 10.777,0.407 24.226,-0.001 L27.997,4.987 L24.200,10.010 ZM12.432,33.179 C15.109,37.283 19.737,39.997 25.000,39.997 C30.278,39.997 34.916,37.268 37.590,33.146 L40.041,38.951 L46.245,38.179 C41.833,45.275 33.969,49.999 25.000,49.999 C16.024,49.999 8.154,45.267 3.745,38.161 L6.178,32.400 L12.432,33.179 Z" class="cls-1"/>
</svg>
